<?xml version="1.0" encoding="utf-8"?>
<!-- Generator: Adobe Illustrator 24.3.0, SVG Export Plug-In . SVG Version: 6.00 Build 0)  -->
<svg version="1.1" id="Layer_1" xmlns="http://www.w3.org/2000/svg" xmlns:xlink="http://www.w3.org/1999/xlink" x="0px" y="0px"
	 viewBox="0 0 592 592" style="enable-background:new 0 0 592 592;" xml:space="preserve">
<style type="text/css">
	.st0{fill:#3762CC;}
	.st1{fill:#202020;}
	.st2{fill:#ADADAD;}
</style>
<path class="st0" d="M515.5,493.8h-439c-8.9,0-16.1-7.2-16.1-16.1c0-3.1,0.9-6.2,2.6-8.8l219.6-335.3c4.9-7.4,14.9-9.5,22.3-4.7
	c1.9,1.2,3.4,2.8,4.7,4.7L529,468.9c4.9,7.4,2.8,17.4-4.7,22.3C521.8,492.9,518.7,493.8,515.5,493.8L515.5,493.8z M296,134.3
	c-2.7,0-5.3,1.4-6.8,3.7L69.7,473.3c-2.5,3.7-1.4,8.8,2.3,11.2c1.3,0.9,2.9,1.3,4.4,1.3h439.1c4.5,0,8.1-3.6,8.1-8.1
	c0-1.6-0.5-3.1-1.3-4.5L302.8,138C301.3,135.7,298.7,134.3,296,134.3L296,134.3z"/>
<path class="st1" d="M515.5,493.8h-439c-8.9,0-16.1-7.2-16.1-16.1c0-3.1,0.9-6.2,2.6-8.8l219.6-335.3c4.9-7.4,14.9-9.5,22.3-4.7
	c1.9,1.2,3.4,2.8,4.7,4.7L529,468.9c4.9,7.4,2.8,17.4-4.7,22.3C521.8,492.9,518.7,493.8,515.5,493.8L515.5,493.8z M296,134.3
	c-2.7,0-5.3,1.4-6.8,3.7L69.7,473.3c-2.5,3.7-1.4,8.8,2.3,11.2c1.3,0.9,2.9,1.3,4.4,1.3h439.1c4.5,0,8.1-3.6,8.1-8.1
	c0-1.6-0.5-3.1-1.3-4.5L302.8,138C301.3,135.7,298.7,134.3,296,134.3L296,134.3z"/>
<path class="st2" d="M107.6,456l184.3-281.5c1.5-2.2,4.5-2.9,6.7-1.4c0.6,0.4,1,0.8,1.4,1.4L484.4,456c1.5,2.2,0.8,5.2-1.4,6.7
	c-0.8,0.5-1.7,0.8-2.7,0.8H111.7c-2.7,0-4.8-2.2-4.9-4.8C106.8,457.8,107.1,456.8,107.6,456L107.6,456z"/>
<g>
	<path class="st1" d="M480.3,467.5H111.7c-4.9,0-8.8-4-8.8-8.8c0-1.7,0.5-3.4,1.4-4.8l184.3-281.5c2.7-4.1,8.2-5.2,12.2-2.6
		c1,0.7,1.9,1.5,2.6,2.6l184.3,281.5c2.7,4.1,1.5,9.6-2.6,12.2C483.7,467,482.1,467.5,480.3,467.5L480.3,467.5z M296,176.3
		c-0.3,0-0.6,0.1-0.7,0.4L111,458.2c-0.3,0.4-0.2,0.9,0.2,1.2c0.1,0.1,0.3,0.1,0.5,0.1h368.7c0.5,0,0.8-0.4,0.8-0.8
		c0-0.2,0-0.3-0.1-0.5L296.7,176.7C296.6,176.5,296.3,176.3,296,176.3L296,176.3z"/>
	<path class="st1" d="M296,540c-6.3,0-12.1-3.1-15.5-8.4L132.9,306.2c-4-6.2-4-14.1,0-20.3L280.5,60.4c5.6-8.6,17.1-11,25.7-5.4
		c2.1,1.4,4,3.2,5.4,5.4l147.6,225.5c4,6.2,4,14.1,0,20.3L311.5,531.6C308.1,536.9,302.3,540,296,540z M287.2,64.8L139.6,290.2
		c-2.3,3.5-2.3,8,0,11.5l147.6,225.5c3.2,4.9,9.7,6.2,14.6,3c1.2-0.8,2.3-1.8,3-3l147.6-225.5c2.3-3.5,2.3-8,0-11.5L304.8,64.8
		c-3.2-4.9-9.7-6.2-14.6-3C289,62.5,288,63.6,287.2,64.8L287.2,64.8z"/>
	<path class="st1" d="M296,540c-2.2,0-4-1.8-4-4V56c0-2.2,1.8-4,4-4s4,1.8,4,4v480C300,538.2,298.2,540,296,540z"/>
	<path class="st1" d="M458.2,300H133.8c-2.2,0-4-1.8-4-4s1.8-4,4-4h324.3c2.2,0,4,1.8,4,4S460.4,300,458.2,300z"/>
</g>
</svg>
