<?xml version="1.0" encoding="utf-8"?>
<!-- Generator: Adobe Illustrator 24.3.0, SVG Export Plug-In . SVG Version: 6.00 Build 0)  -->
<svg version="1.1" id="Layer_1" xmlns="http://www.w3.org/2000/svg" xmlns:xlink="http://www.w3.org/1999/xlink" x="0px" y="0px"
	 viewBox="0 0 512 512" style="enable-background:new 0 0 512 512;" xml:space="preserve">
<style type="text/css">
	.st0{fill:#C7D5FF;}
	.st1{fill:#85B2D6;}
	.st2{fill:#759CBD;}
	.st3{fill:#5D7D96;}
	.st4{fill:#8DBCE3;}
</style>
<circle class="st0" cx="256" cy="256" r="256"/>
<circle class="st1" cx="256" cy="256" r="256"/>
<path class="st2" d="M256,0v5.2C372.7,29,460.5,132.3,460.5,256S372.7,483,256,506.8v5.2c141.4,0,256-114.6,256-256S397.4,0,256,0z"
	/>
<path class="st2" d="M512,254.6c-0.5,41-55.4,76.5-135.9,94.5C357.4,444.5,310.7,512,256,512c141.4,0,256-114.6,256-256
	C512,255.5,512,255.1,512,254.6z"/>
<path class="st3" d="M512,254.6c-0.3,26.3-23,50.3-60.5,69c-20.4,74.6-73.6,135.6-143.2,166.5c-16,14.1-33.7,21.9-52.3,21.9
	c141.4,0,256-114.6,256-256C512,255.5,512,255.1,512,254.6z"/>
<path class="st2" d="M135.9,349.1C55.4,331.1,0.5,295.6,0,254.6c0,0.5,0,0.9,0,1.4c0,141.4,114.6,256,256,256
	C201.3,512,154.6,444.5,135.9,349.1z"/>
<path class="st4" d="M127.1,256c0,32.9,3.1,64.3,8.8,93.1c35.8,8,76.7,12.6,120.1,12.6s84.3-4.6,120.1-12.6
	c5.7-28.9,8.8-60.3,8.8-93.1C384.9,114.6,327.2,0,256,0S127.1,114.6,127.1,256L127.1,256z"/>
<path class="st1" d="M376.1,349.1c-35.8,8-76.7,12.6-120.1,12.6s-84.3-4.6-120.1-12.6C154.6,444.5,201.3,512,256,512
	S357.4,444.5,376.1,349.1z"/>
</svg>
